<svg width="400" height="400" viewBox="0 0 400 400" fill="none" xmlns="http://www.w3.org/2000/svg">
<rect width="400" height="400" fill="#0C0A09"/>
<rect x="86.1321" y="81.269" width="46" height="236" transform="rotate(2 86.1321 81.269)" fill="#FFC857"/>
<rect x="170.407" y="69" width="46" height="236" transform="rotate(22 170.407 69)" fill="#FFC857"/>
<rect x="299.207" y="80.958" width="46" height="236" transform="rotate(3 299.207 80.958)" fill="#FFC857"/>
<rect x="275.702" y="242.015" width="46" height="119.772" transform="rotate(77 275.702 242.015)" fill="#FFC857"/>
<path d="M272.349 233.363C270.033 225.832 266.257 218.831 261.235 212.759C256.213 206.688 250.044 201.665 243.081 197.977C236.118 194.289 228.497 192.009 220.653 191.267C212.808 190.525 204.895 191.335 197.363 193.651C189.832 195.967 182.831 199.743 176.759 204.765C170.688 209.787 165.665 215.956 161.977 222.919C158.289 229.882 156.009 237.503 155.267 245.347C154.525 253.192 155.335 261.105 157.651 268.637L200.237 255.54C199.64 253.601 199.432 251.564 199.623 249.545C199.814 247.525 200.401 245.564 201.35 243.771C202.3 241.979 203.593 240.391 205.156 239.098C206.719 237.805 208.521 236.833 210.46 236.237C212.399 235.64 214.436 235.432 216.455 235.623C218.475 235.814 220.436 236.401 222.229 237.35C224.021 238.3 225.609 239.593 226.902 241.156C228.195 242.719 229.167 244.521 229.763 246.46L272.349 233.363Z" fill="#FFC857"/>
</svg>
